<?xml version="1.0" encoding="utf-8"?>
<!-- Generator: Adobe Illustrator 25.0.1, SVG Export Plug-In . SVG Version: 6.00 Build 0)  -->
<svg version="1.1" id="Layer_1" xmlns="http://www.w3.org/2000/svg" xmlns:xlink="http://www.w3.org/1999/xlink" x="0px" y="0px"
	 viewBox="0 0 200 200" style="enable-background:new 0 0 200 200;" xml:space="preserve">
<style type="text/css">
	.st0{fill:#054BFE;}
</style>
<g>
	<g>
		<path class="st0" d="M99.1,0.9C44.4,0.9,0,45.3,0,100s44.4,99.1,99.1,99.1s99.1-44.4,99.1-99.1S153.8,0.9,99.1,0.9z M99.1,183.3
			c-45.9,0-83.3-37.4-83.3-83.3c0-45.9,37.4-83.3,83.3-83.3s83.3,37.4,83.3,83.3C182.4,145.9,145,183.3,99.1,183.3z"/>
	</g>
	<g>
		<path class="st0" d="M131.2,75.6l-20.7,3.3c-1-2.6-2-4.5-2.8-5.5c-0.8-1-2.2-2.1-4.1-3.1v16.1c11.3,3,18.8,6.2,22.6,9.5
			c5,4.5,7.5,10.2,7.5,17.1c0,4-0.9,7.8-2.7,11.1c-1.8,3.4-4.1,6.2-6.9,8.5s-5.8,3.9-8.9,4.9s-7,1.6-11.6,1.8v10.5h-8.1v-10.5
			c-5.5-0.5-9.9-1.4-13.3-2.6c-3.4-1.3-6.3-3.1-8.8-5.3c-2.5-2.3-4.4-4.7-5.7-7.3c-1.3-2.6-2.3-5.8-3-9.5l22.5-2.6
			c0.7,3.7,1.6,6.3,2.7,8c1.1,1.6,3,3.1,5.6,4.3v-19.7c-7.5-2.1-12.8-3.9-16-5.4c-3.1-1.5-5.9-4-8.2-7.3c-2.3-3.4-3.5-7.5-3.5-12.3
			c0-6.6,2.3-12.1,6.9-16.6c4.6-4.4,11.5-6.9,20.6-7.4v-5.5h8.1v5.5c8.3,0.5,14.7,2.5,19.1,5.9C127,64.9,129.8,69.6,131.2,75.6z
			 M95.3,70c-2.4,0.8-4,1.8-5,2.9C89.5,74.1,89,75.4,89,77c0,1.6,0.5,3.1,1.4,4.3c0.9,1.2,2.6,2.2,4.9,3V70z M103.5,124.8
			c3.2-0.7,5.5-1.9,6.9-3.5c1.5-1.6,2.2-3.4,2.2-5.4c0-1.8-0.6-3.4-1.9-4.8c-1.2-1.5-3.7-2.8-7.3-4.1V124.8z"/>
	</g>
</g>
</svg>
