<?xml version="1.0" encoding="utf-8"?>
<!-- Generator: Adobe Illustrator 25.0.1, SVG Export Plug-In . SVG Version: 6.00 Build 0)  -->
<svg version="1.1" id="Layer_1" xmlns="http://www.w3.org/2000/svg" xmlns:xlink="http://www.w3.org/1999/xlink" x="0px" y="0px"
	 viewBox="0 0 200 200" style="enable-background:new 0 0 200 200;" xml:space="preserve">
<style type="text/css">
	.st0{fill:#054BFE;}
</style>
<path class="st0" d="M99.7-0.5C44.4-0.5-0.5,44.4-0.5,99.7S44.4,200,99.7,200C155.1,200,200,155.1,200,99.7S155.1-0.5,99.7-0.5z
	 M99.7,15.5c29.7,0,55.8,15.4,70.8,38.7l-45.9,22.4c-3.3-12.7-8-29.4-8.2-31.1c-0.4-2.6-1.8-8.1,0.4-9.5c3.5-2.2,3.1-8.8-2.2-8.8
	c-4.4,0-10.3,0-14.9,0c-4.6,0-10.5,0-14.9,0c-5.2,0-5.7,6.6-2.2,8.8c2.2,1.4,0.7,7,0.4,9.5s-11.4,41-11.4,45.1c0,1.1,0,5.6,0,11.9
	l-51.4,25.1c-3.1-8.7-4.8-18.1-4.8-27.9C15.5,53.3,53.3,15.5,99.7,15.5z M122.1,156.5c-0.1,9.1-42.7,11.5-43.6-0.5
	c-0.9-11.7-0.3-52.2,0-67c0.1-3.3,1.8-6.3,1.8-6.3c6.5,5.5,18.1,9.2,23.3,3.3c5.2-5.9,10.8-8.5,16-8.2c0,0,1.4,4.1,2.4,10.3
	C122,88.8,122.4,127,122.1,156.5z M99.7,184c-31,0-58.2-16.8-72.8-41.9l44.7-21.9c0,15.5,0,32.2,0,37.3c0,9.9,9.5,14.7,17.9,14.7
	h20.3c8.4,0,17.9-4.8,17.9-14.7c0-9,0-53.6,0-64.8l50.1-24.5c3.9,9.7,6.1,20.3,6.1,31.4C184,146.2,146.2,184,99.7,184z"/>
</svg>
