<?xml version="1.0" encoding="utf-8"?>
<!-- Generator: Adobe Illustrator 25.0.1, SVG Export Plug-In . SVG Version: 6.00 Build 0)  -->
<svg version="1.1" id="Layer_1" xmlns="http://www.w3.org/2000/svg" xmlns:xlink="http://www.w3.org/1999/xlink" x="0px" y="0px"
	 viewBox="0 0 200 200" style="enable-background:new 0 0 200 200;" xml:space="preserve">
<style type="text/css">
	.st0{fill:#054BFE;}
</style>
<path class="st0" d="M199.9,96.7c0-0.2,0-0.3,0-0.5c0-1.1-0.1-2.1-0.2-3.2c0,0,0,0,0,0c-3.6-52-46.9-93-99.8-93S3.8,41.1,0.2,93
	c0,0,0,0,0,0c-0.1,1.1-0.1,2.1-0.2,3.2c0,0.2,0,0.3,0,0.5C0,97.8,0,98.9,0,100c0,11.2,1.8,22,5.3,32.1c0.5,1.5,1.1,3.1,1.7,4.6
	c0.6,1.5,1.2,3,1.9,4.5c1.7,3.7,3.6,7.3,5.6,10.7c0.4,0.7,0.8,1.4,1.3,2c1.7,2.7,3.6,5.3,5.6,7.8c3,3.8,6.2,7.3,9.7,10.6
	C49,189.5,73.2,200,100,200h0c26.8,0,51-10.5,69-27.6c3.5-3.3,6.7-6.9,9.7-10.6c2-2.5,3.8-5.1,5.6-7.8c0.4-0.7,0.9-1.4,1.3-2
	c2.1-3.4,4-7,5.6-10.7c0.7-1.5,1.3-3,1.9-4.5c0.6-1.5,1.2-3,1.7-4.6c3.4-10.1,5.3-20.9,5.3-32.1C200,98.9,200,97.8,199.9,96.7z
	 M184,104c0,0.1,0,0.2,0,0.2c-0.1,1.3-0.2,2.5-0.3,3.8c0,0.1,0,0.3,0,0.4c-0.1,1.2-0.3,2.4-0.4,3.6c0,0.2,0,0.3-0.1,0.5
	c-0.2,1.2-0.4,2.3-0.6,3.5c0,0.2-0.1,0.3-0.1,0.5c-0.2,1.1-0.5,2.3-0.7,3.4c0,0.2-0.1,0.4-0.1,0.5c-0.3,1.1-0.6,2.2-0.9,3.3
	c-0.1,0.2-0.1,0.3-0.2,0.5c-0.3,1.1-0.7,2.2-1.1,3.3c-0.1,0.2-0.1,0.3-0.2,0.5c-0.4,1.1-0.8,2.2-1.2,3.2c-0.1,0.1-0.1,0.3-0.2,0.4
	c-0.4,1.1-0.9,2.2-1.4,3.2c0,0.1-0.1,0.2-0.1,0.3c-0.5,1.1-1,2.2-1.6,3.3c0,0-0.1,0.1-0.1,0.1c-0.6,1.1-1.2,2.2-1.8,3.3c0,0,0,0,0,0
	c-0.6,1.1-1.3,2.1-1.9,3.2c0,0.1-0.1,0.1-0.1,0.2c-0.6,1-1.3,2-2,2.9c-0.1,0.1-0.1,0.2-0.2,0.3c-0.7,0.9-1.4,1.9-2.1,2.8
	c-0.1,0.1-0.2,0.2-0.3,0.4c-0.7,0.9-1.4,1.8-2.1,2.6c-0.1,0.1-0.2,0.2-0.3,0.4c-0.7,0.9-1.5,1.7-2.2,2.5c-0.1,0.1-0.2,0.2-0.3,0.4
	c-0.8,0.8-1.6,1.6-2.4,2.4c-0.1,0.1-0.2,0.2-0.3,0.3c-0.8,0.8-1.6,1.6-2.5,2.3c-0.1,0.1-0.2,0.2-0.3,0.3c-0.9,0.8-1.7,1.5-2.6,2.2
	c-0.1,0.1-0.2,0.2-0.3,0.2c-0.9,0.7-1.8,1.5-2.8,2.2c-0.1,0.1-0.1,0.1-0.2,0.1c-1,0.7-2,1.4-3,2.1c0,0,0,0-0.1,0
	c-1,0.7-2.1,1.4-3.2,2c0,0,0,0,0,0c-1.1,0.6-2.1,1.3-3.2,1.9c-0.1,0-0.1,0.1-0.2,0.1c-1,0.6-2.1,1.1-3.2,1.6
	c-0.1,0.1-0.2,0.1-0.3,0.2c-1.1,0.5-2.1,1-3.2,1.5c-0.1,0.1-0.3,0.1-0.4,0.2c-1.1,0.5-2.1,0.9-3.2,1.3c-0.1,0.1-0.3,0.1-0.4,0.2
	c-1.1,0.4-2.2,0.8-3.3,1.2c-0.2,0.1-0.3,0.1-0.5,0.2c-1.1,0.4-2.2,0.7-3.3,1c-0.1,0-0.3,0.1-0.4,0.1c-1.1,0.3-2.3,0.6-3.4,0.9
	c-0.1,0-0.3,0.1-0.4,0.1c-1.2,0.3-2.4,0.5-3.6,0.7c-0.1,0-0.2,0-0.3,0.1c-1.2,0.2-2.5,0.4-3.7,0.6c-0.1,0-0.1,0-0.2,0
	c-1.3,0.2-2.6,0.3-3.9,0.4c-1.5,0.1-2.9,0.2-4.4,0.2v-19c14.3-0.3,31-7,36.2-33.5c-20.7,0.3-31.1,9.2-36.2,19.7v-18.4
	c13.1-0.3,28.3-6.5,33-30.7c-18.7,0.3-28.3,8.3-33,17.8v-12.6V103c0,0,0,0,0,0c0.4,0,0.8,0,1.2-0.1c0.1,0,0.2,0,0.3,0
	c0.3,0,0.6,0,1-0.1c0.1,0,0.2,0,0.2,0c0.3,0,0.7-0.1,1-0.1c0.1,0,0.1,0,0.2,0c0.4,0,0.7-0.1,1.1-0.2c0,0,0.1,0,0.1,0
	c0.4-0.1,0.8-0.1,1.2-0.2c0,0,0,0,0.1,0c0.4-0.1,0.8-0.2,1.2-0.3c0,0,0,0,0,0c0.4-0.1,0.8-0.2,1.2-0.3c0,0,0,0,0,0
	c0.4-0.1,0.8-0.2,1.3-0.4c0,0,0,0,0,0l0,0c3.7-1.2,7.3-3.2,10.5-6.2l0,0c0.3-0.3,0.6-0.6,0.9-0.9c0.1-0.1,0.2-0.2,0.3-0.3
	c0.2-0.2,0.4-0.4,0.6-0.7c0.1-0.1,0.2-0.3,0.4-0.4c0.2-0.2,0.4-0.4,0.5-0.6c0.1-0.2,0.2-0.3,0.4-0.5c0.2-0.2,0.3-0.4,0.5-0.7
	c0.1-0.2,0.2-0.3,0.3-0.5c0.2-0.2,0.3-0.5,0.5-0.7c0.1-0.2,0.2-0.3,0.3-0.5c0.2-0.3,0.3-0.6,0.5-0.8c0.1-0.1,0.2-0.3,0.3-0.4
	c0.2-0.4,0.5-0.8,0.7-1.3c0,0,0,0,0-0.1c0.2-0.5,0.5-0.9,0.7-1.4c0.1-0.2,0.1-0.3,0.2-0.5c0.2-0.3,0.3-0.7,0.4-1
	c0.1-0.2,0.2-0.4,0.2-0.6c0.1-0.3,0.3-0.7,0.4-1c0.1-0.2,0.2-0.4,0.2-0.7c0.1-0.3,0.2-0.7,0.3-1c0.1-0.2,0.2-0.5,0.2-0.7
	c0.1-0.4,0.2-0.7,0.3-1.1c0.1-0.2,0.1-0.5,0.2-0.7c0.1-0.4,0.2-0.8,0.3-1.3c0.1-0.2,0.1-0.4,0.2-0.6c0.1-0.6,0.3-1.3,0.4-2
	c-0.9,0-1.8,0.1-2.6,0.1c-0.3,0-0.6,0-0.9,0.1c-0.6,0.1-1.3,0.1-1.9,0.2c-0.5,0.1-1.1,0.1-1.6,0.2c0,0,0,0,0,0h0
	c-12.1,1.8-19.2,7.6-23.2,14.5c-0.3,0.5-0.5,0.9-0.8,1.4v-1.8V75.8c11.8-0.4,25.4-6,29.7-27.8c-16.7,0.2-25.4,7.3-29.7,15.7V53.3
	c7.5-9.3,12.3-23.6-2-41.1C85.8,29.7,90.5,44,98,53.3v10.4C93.7,55.3,85,48.2,68.3,48C72.6,69.8,86.2,75.5,98,75.8v14.7
	c-4.5-8.8-13.5-16.2-31-16.5c2.7,14,9.2,21.6,16.6,25.5c0,0,0,0,0,0c1.7,0.9,3.5,1.6,5.3,2.1c0,0,0,0,0.1,0c1.2,0.3,2.3,0.6,3.5,0.8
	c0.1,0,0.2,0,0.2,0c0.5,0.1,1.1,0.2,1.6,0.2c0,0,0,0,0,0c0.5,0.1,1.1,0.1,1.6,0.2c0.1,0,0.2,0,0.4,0c0.5,0,1.1,0.1,1.6,0.1
	c0,0,0,0,0,0v6.6v10.3c-1.3-2.6-2.9-5.1-5.1-7.3c0,0,0,0,0,0c-0.5-0.5-1-1-1.5-1.5c0,0,0,0,0,0c-0.5-0.5-1-0.9-1.6-1.4c0,0,0,0,0,0
	c-0.6-0.4-1.1-0.9-1.7-1.3c0,0,0,0,0,0c-0.6-0.4-1.2-0.8-1.9-1.2c0,0,0,0,0,0c-0.7-0.4-1.3-0.7-2.1-1.1c0,0,0,0,0,0
	c-0.7-0.3-1.5-0.7-2.2-1c0,0,0,0,0,0c-1.6-0.6-3.2-1.1-5-1.6c0,0,0,0,0,0c-3.5-0.9-7.4-1.4-11.9-1.4c0.5,2.6,1.2,5.1,1.9,7.3
	c0,0,0,0,0,0c1.5,4.4,3.4,8,5.6,11c0,0,0.1,0.1,0.1,0.1c0.3,0.5,0.7,0.9,1,1.3c0,0,0.1,0.1,0.1,0.1c0.4,0.4,0.8,0.9,1.1,1.3
	c0,0,0,0,0,0c6.7,7.1,15.3,9.4,23.2,9.6v18.4c-5.1-10.5-15.5-19.4-36.2-19.7C67.1,158,83.7,164.7,98,165v19c-1.5,0-3-0.1-4.4-0.2
	c-1.3-0.1-2.6-0.2-3.9-0.4c-0.1,0-0.1,0-0.2,0c-1.2-0.2-2.5-0.3-3.7-0.6c-0.1,0-0.2,0-0.3-0.1c-1.2-0.2-2.4-0.4-3.6-0.7
	c-0.1,0-0.3-0.1-0.4-0.1c-1.2-0.3-2.3-0.5-3.4-0.9c-0.1,0-0.3-0.1-0.4-0.1c-1.1-0.3-2.2-0.6-3.3-1c-0.2,0-0.3-0.1-0.5-0.1
	c-1.1-0.4-2.2-0.7-3.3-1.2c-0.1-0.1-0.3-0.1-0.4-0.2c-1.1-0.4-2.2-0.8-3.2-1.3c-0.1-0.1-0.3-0.1-0.4-0.2c-1.1-0.5-2.1-1-3.2-1.5
	c-0.1-0.1-0.2-0.1-0.3-0.2c-1.1-0.5-2.1-1.1-3.2-1.6c-0.1,0-0.1-0.1-0.2-0.1c-1.1-0.6-2.1-1.2-3.2-1.9c0,0,0,0,0,0
	c-1.1-0.7-2.1-1.3-3.2-2c0,0,0,0-0.1,0c-1-0.7-2-1.4-3-2.1c-0.1-0.1-0.1-0.1-0.2-0.1c-0.9-0.7-1.9-1.4-2.8-2.2
	c-0.1-0.1-0.2-0.2-0.3-0.2c-0.9-0.7-1.8-1.5-2.6-2.2c-0.1-0.1-0.2-0.2-0.3-0.3c-0.8-0.8-1.7-1.5-2.5-2.3c-0.1-0.1-0.2-0.2-0.3-0.3
	c-0.8-0.8-1.6-1.6-2.4-2.4c-0.1-0.1-0.2-0.2-0.3-0.4c-0.8-0.8-1.5-1.7-2.2-2.5c-0.1-0.1-0.2-0.2-0.3-0.4c-0.7-0.9-1.4-1.7-2.1-2.6
	c-0.1-0.1-0.2-0.2-0.3-0.4c-0.6-0.8-1.2-1.6-1.8-2.4l26.1-15.4c-0.1-0.3-0.1-0.6-0.2-1l-1.1-5.4l5.5,0.1c2,0,4,0.1,5.9,0.3l3.2-1.9
	c-3.3-3.8-6-8.4-7.9-13.8L23.6,135c0-0.1-0.1-0.1-0.1-0.2c-0.5-1.1-0.9-2.1-1.4-3.2c-0.1-0.1-0.1-0.3-0.2-0.4
	c-0.4-1.1-0.8-2.2-1.2-3.2c-0.1-0.2-0.1-0.3-0.2-0.5c-0.4-1.1-0.7-2.2-1.1-3.3c-0.1-0.2-0.1-0.3-0.2-0.5c-0.3-1.1-0.6-2.2-0.9-3.3
	c0-0.2-0.1-0.3-0.1-0.5c-0.3-1.1-0.5-2.3-0.7-3.4c0-0.2-0.1-0.3-0.1-0.5c-0.2-1.2-0.4-2.3-0.6-3.5c0-0.2,0-0.3-0.1-0.5
	c-0.2-1.2-0.3-2.4-0.4-3.6c0-0.1,0-0.3,0-0.4c-0.1-1.2-0.2-2.5-0.3-3.8c0-0.1,0-0.2,0-0.2c-0.1-1.3-0.1-2.6-0.1-4
	c0-1.3,0-2.5,0.1-3.7c0-0.6,0.1-1.1,0.1-1.7C18.8,53.5,51,20.4,91.7,16.4c1.4-2.3,3-4.6,4.8-7l3.4-4.2l3.4,4.2
	c1.9,2.3,3.5,4.6,4.8,7c24.2,2.4,45.5,15.1,59.3,33.7l-33.1,19.5l3.9-0.1l-1.1,5.4c-1.1,5.5-2.7,10.3-5,14.4l43.4-25.6
	c4.5,9.4,7.4,19.9,8.1,30.9c0,0.6,0.1,1.1,0.1,1.7c0.1,1.2,0.1,2.5,0.1,3.7C184,101.3,184,102.6,184,104z"/>
</svg>
