<?xml version="1.0" encoding="utf-8"?>
<!-- Generator: Adobe Illustrator 25.0.1, SVG Export Plug-In . SVG Version: 6.00 Build 0)  -->
<svg version="1.1" id="Layer_1" xmlns="http://www.w3.org/2000/svg" xmlns:xlink="http://www.w3.org/1999/xlink" x="0px" y="0px"
	 viewBox="0 0 200 200" style="enable-background:new 0 0 200 200;" xml:space="preserve">
<style type="text/css">
	.st0{fill:#054BFE;}
</style>
<g>
	<path class="st0" d="M100,16c46.3,0,84,37.7,84,84s-37.7,84-84,84c-46.3,0-84-37.7-84-84S53.7,16,100,16 M100,0
		C44.8,0,0,44.8,0,100s44.8,100,100,100s100-44.8,100-100S155.2,0,100,0L100,0z"/>
	<g id="_x36_GtZmt_1_">
		<g>
			<path class="st0" d="M103.1,103.8c8.3,0,25-0.8,29,0.3c2.7,0.8,4.5,1.6,4.5,1.6s5-4.4,7.5-7c3.4-3.6,7-7.1,10.5-10.5
				c5.5-5.3,13.4-5.3,18.4-0.3c4.9,5,5,12.9-0.2,18.1c-15.1,15.3-30.2,30.5-45.7,45.4c-2.4,2.4-6.7,3.8-10.2,3.9
				c-11.8,0.5-23.7,0.3-35.5,0.1c-3.3,0-5.8,0.6-8,3.2c-2.2,2.7-4.9,5-7.4,7.5c-2.4,2.5-4.8,2.4-7.2-0.1
				c-7.7-7.8-15.5-15.5-23.2-23.3c-2.4-2.4-2.4-4.8,0-7.2c8.9-8.9,17.7-17.8,26.7-26.6c3.7-3.6,8.3-5.4,13.5-5.4
				C85,103.8,94.1,103.8,103.1,103.8z M44.5,138.8c6.4,6.4,12.6,12.6,19,19c1.8-1.9,4-4,5.9-6.4c2.5-3.1,5.6-4.1,9.6-4
				c12.3,0.2,24.5,0.2,36.8,0c2.2,0,4.9-1.1,6.6-2.5c16.6-13.4,29.2-27.7,43.8-43.6c2.3-2.3,3.6-4.9,1-7.6c-2.7-2.6-5.3-1.3-7.6,1
				c-4.8,4.9-9.8,9.6-14.5,14.7c-0.5,0.6-2.3,2.2-2.3,2.2s0.5,1.9,0.6,2.7c0.8,8.9-4.4,15-13.5,15c-9.2,0.1-18.4,0-27.6,0
				c-2.9,0-5.6-0.4-5.7-3.9c-0.1-3.8,2.7-4.3,5.7-4.3c8.9,0.1,17.8,0,26.7,0c3.3,0,6.1-0.7,6.1-4.6c0.1-3.8-2.6-4.8-5.9-4.8
				c-17.5,0-35.1-0.1-52.6,0.2c-2.9,0.1-6.5,1.3-8.7,3.3C59.8,123,52.1,131.2,44.5,138.8z"/>
			<path class="st0" d="M117.3,55.3c6.8-4.1,14.1-7.2,22.2-7.4c5.8-0.1,5.8-0.3,5.8,6.6c0,22.1-18.8,40.3-40.8,40.4
				c-2.3,0-5.2-1.2-6.8-2.8c-15-15.4-14.9-41-0.1-56.8c4.6-4.9,4.6-4.5,9,0c2.6,2.7,4.7,6,6.5,9.3C114.8,48,115.8,51.7,117.3,55.3z
				 M102.2,43.1c-10.1,10.9-9.9,31.7,0,41.2C112,73.2,112,55.2,102.2,43.1z M136.6,55.9c-13.2,0-18.1,8.2-18.7,10
				c-2,6.4-3.4,13-4.9,19.3C125.2,82.5,135.9,70.1,136.6,55.9z"/>
		</g>
	</g>
</g>
</svg>
