<?xml version="1.0" encoding="utf-8"?>
<!-- Generator: Adobe Illustrator 25.0.1, SVG Export Plug-In . SVG Version: 6.00 Build 0)  -->
<svg version="1.1" id="Layer_1" xmlns="http://www.w3.org/2000/svg" xmlns:xlink="http://www.w3.org/1999/xlink" x="0px" y="0px"
	 viewBox="0 0 200 200" style="enable-background:new 0 0 200 200;" xml:space="preserve">
<style type="text/css">
	.st0{fill:#054BFE;}
</style>
<g>
	<path class="st0" d="M100,16c46.3,0,84,37.7,84,84s-37.7,84-84,84s-84-37.7-84-84S53.7,16,100,16 M100,0C44.8,0,0,44.8,0,100
		s44.8,100,100,100s100-44.8,100-100S155.2,0,100,0L100,0z"/>
	<g id="raS7OD_1_">
		<g>
			<path class="st0" d="M116.9,151c9.3-10.7,16.2-21.9,20.6-34.5c1.6-4.5,2.8-9.2,3.8-14c-7,19.1-17.7,35.4-33.7,48.1
				c-0.4-0.1-0.8-0.1-1.2-0.2c-0.7-5.2-1.6-10.3-1.9-15.5c-1.1-17.2,5.1-31.5,18-42.9c12.5-11,25.1-21.9,37.7-32.8
				c0.1-0.1,0.4-0.1,1.2-0.3c0.7,4.8,1.6,9.5,2.2,14.2c1.8,16.5,0.9,32.8-5,48.6c-6.5,17.3-18.7,27.4-37.3,29.3
				C120.1,151.1,118.9,151,116.9,151z"/>
			<path class="st0" d="M83.2,151.1c-12.3-0.4-22.6-3.6-30.9-12c-8.5-8.6-12.4-19.4-14.7-30.9c-3.2-15.9-2.2-31.8,0.7-47.7
				c0.1-0.5,0.4-1,0.8-1.8c2.1,1.9,3.9,3.8,5.9,5.5c10.4,9,21,17.9,31.4,27c9.1,8,15.9,17.4,18.2,29.6c1.8,9.9,1,19.7-1.4,30.4
				c-16.7-13.1-27.4-29.5-34.3-48.7C62.2,120.7,70.6,136.6,83.2,151.1z"/>
		</g>
	</g>
</g>
</svg>
