<?xml version="1.0" encoding="utf-8"?>
<!-- Generator: Adobe Illustrator 25.0.1, SVG Export Plug-In . SVG Version: 6.00 Build 0)  -->
<svg version="1.1" id="Layer_1" xmlns="http://www.w3.org/2000/svg" xmlns:xlink="http://www.w3.org/1999/xlink" x="0px" y="0px"
	 viewBox="0 0 200 200" style="enable-background:new 0 0 200 200;" xml:space="preserve">
<style type="text/css">
	.st0{fill:#054BFE;}
</style>
<g>
	<path class="st0" d="M100,0C44.8,0,0,44.8,0,100s44.8,100,100,100s100-44.8,100-100S155.2,0,100,0z M100,184c-46.3,0-84-37.7-84-84
		s37.7-84,84-84s84,37.7,84,84S146.3,184,100,184z"/>
	<path class="st0" d="M110.5,79.5C96.8,67.5,82.8,55.7,69,43.8c-2.6-2.3-5.1-4.7-7.8-7.3c-0.5,1.1-0.9,1.8-1.1,2.4
		c-3.9,21-5.2,42-1,63c3.1,15.2,8.2,29.5,19.4,40.9c10.9,11.1,24.6,15.4,40.9,15.9c-16.6-19.3-27.7-40.2-32.2-64.3
		c9.1,25.4,23.3,47.1,45.4,64.4c3.1-14.2,4.3-27.1,1.9-40.2C131.5,102.5,122.5,90,110.5,79.5z"/>
</g>
</svg>
