<?xml version="1.0" encoding="utf-8"?>
<!-- Generator: Adobe Illustrator 25.0.1, SVG Export Plug-In . SVG Version: 6.00 Build 0)  -->
<svg version="1.1" id="Layer_1" xmlns="http://www.w3.org/2000/svg" xmlns:xlink="http://www.w3.org/1999/xlink" x="0px" y="0px"
	 viewBox="0 0 200 200" style="enable-background:new 0 0 200 200;" xml:space="preserve">
<style type="text/css">
	.st0{fill:#054BFE;}
</style>
<g>
	<path class="st0" d="M100,17.2c45.7,0,82.8,37.1,82.8,82.8s-37.1,82.8-82.8,82.8c-45.7,0-82.8-37.1-82.8-82.8S54.3,17.2,100,17.2
		 M100,1.5C45.6,1.5,1.5,45.6,1.5,100s44.1,98.5,98.5,98.5s98.5-44.1,98.5-98.5S154.4,1.5,100,1.5L100,1.5z"/>
	<g id="EX7q5n_1_">
		<g>
			<path class="st0" d="M136.8,154.2c-12.4-9-24.6-17.9-36.9-26.8c-12.2,8.9-24.5,17.8-36.7,26.7c0,0-0.1-0.1-0.1-0.1
				c4.7-14.4,9.3-28.8,14-43.2C64.8,101.9,52.5,93,40.3,84c0,0,0-0.1,0-0.1c0.2,0,0.4,0,0.7,0c14.7,0,29.5,0,44.2,0
				c0.6,0,0.8-0.2,0.9-0.7c4.5-14,9.1-27.9,13.6-41.9c0.1-0.2,0.1-0.4,0.3-0.7c0.4,1.1,0.7,2.1,1,3.1c4.3,13.2,8.6,26.3,12.8,39.5
				c0.2,0.6,0.4,0.7,1,0.7c14.7,0,29.4,0,44.1,0c0.2,0,0.5,0,0.9,0c-0.3,0.2-0.4,0.3-0.5,0.4c-11.9,8.7-23.9,17.3-35.8,26
				c-0.5,0.4-0.6,0.7-0.4,1.2c4.6,14,9.1,27.9,13.6,41.9C136.7,153.7,136.7,153.9,136.8,154.2z"/>
		</g>
	</g>
</g>
</svg>
