<?xml version="1.0" encoding="utf-8"?>
<!-- Generator: Adobe Illustrator 25.0.1, SVG Export Plug-In . SVG Version: 6.00 Build 0)  -->
<svg version="1.1" id="Layer_1" xmlns="http://www.w3.org/2000/svg" xmlns:xlink="http://www.w3.org/1999/xlink" x="0px" y="0px"
	 viewBox="0 0 200 200" style="enable-background:new 0 0 200 200;" xml:space="preserve">
<style type="text/css">
	.st0{fill:#054BFE;}
</style>
<g>
	<path class="st0" d="M100,16c46.3,0,84,37.7,84,84s-37.7,84-84,84c-46.3,0-84-37.7-84-84S53.7,16,100,16 M100,0
		C44.8,0,0,44.8,0,100s44.8,100,100,100s100-44.8,100-100S155.2,0,100,0L100,0z"/>
	<g id="so1nKc_1_">
		<g>
			<path class="st0" d="M100,66.4c0.5-0.8,1-1.6,1.5-2.3c3.5-4.9,7.9-8.8,13.5-11.2c4.3-1.9,8.8-2.6,13.5-2.2c7,0.6,13,3.2,17.8,8.2
				c4.2,4.3,6.6,9.4,7.4,15.3c0.5,3.7,0.3,7.5,0,11.2c-0.3,3.6-1.1,7.2-2.3,10.6c-1.9,5.5-5.1,10.2-8.9,14.5
				c-3.9,4.4-8.3,8.3-12.7,12.2c-7.7,6.7-15.3,13.5-23,20.2c-2.2,2-4.4,4.1-6.6,6.1c-0.1,0.1-0.2,0.2-0.4,0.4
				c-0.6-0.5-1.1-1-1.6-1.5c-7.4-7-15.1-13.7-22.8-20.4c-5-4.4-10.1-8.7-14.8-13.4c-3.4-3.4-6.6-7.1-9.1-11.3
				c-2.7-4.5-4.3-9.3-5.1-14.4c-0.6-3.8-0.8-7.6-0.7-11.4c0.5-11.6,7.7-21.4,18.3-24.9c11.5-3.8,21.6-1.1,30.3,7.2
				c2,1.9,3.7,4.2,5.2,6.5C99.8,66.1,99.9,66.2,100,66.4z"/>
		</g>
	</g>
</g>
</svg>
