<?xml version="1.0" encoding="utf-8"?>
<!-- Generator: Adobe Illustrator 25.0.1, SVG Export Plug-In . SVG Version: 6.00 Build 0)  -->
<svg version="1.1" id="Layer_1" xmlns="http://www.w3.org/2000/svg" xmlns:xlink="http://www.w3.org/1999/xlink" x="0px" y="0px"
	 viewBox="0 0 200 200" style="enable-background:new 0 0 200 200;" xml:space="preserve">
<style type="text/css">
	.st0{fill:#054BFE;}
</style>
<g>
	<path class="st0" d="M99.9,16.2c46.3,0,83.9,37.6,83.9,83.9s-37.6,83.9-83.9,83.9s-83.9-37.6-83.9-83.9S53.6,16.2,99.9,16.2
		 M99.9,0.3C44.7,0.3,0,45,0,100.1S44.7,200,99.9,200s99.9-44.7,99.9-99.9S155,0.3,99.9,0.3L99.9,0.3z"/>
	<g>
		<polygon class="st0" points="57.4,44.5 75.6,44.5 84,81.8 92.9,44.5 108,44.5 117,81.8 125.3,44.5 143.7,44.5 126.4,101.9 
			108.8,101.9 100.6,67.8 92.7,101.9 74.9,101.9 		"/>
		<polygon class="st0" points="57.4,101.9 75.6,101.9 84,139.3 92.9,101.9 108,101.9 117,139.3 125.3,101.9 143.7,101.9 
			126.4,159.4 108.8,159.4 100.6,125.2 92.7,159.4 74.9,159.4 		"/>
	</g>
</g>
</svg>
